Coordinates
version=1
nRows=9
nColumns=36
inDegrees=yes

Units are S.I. units (second, meters, Newtons, ...)
If the header above contains a line with 'inDegrees', this indicates whether rotational values are in degrees (yes) or radians (no).

endheader
time	pelvis_tilt	pelvis_list	pelvis_rotation	pelvis_tx	pelvis_ty	pelvis_tz	hip_flexion_r	hip_adduction_r	hip_rotation_r	knee_angle_r	knee_angle_r_beta	ankle_angle_r	subtalar_angle_r	mtp_angle_r	hip_flexion_l	hip_adduction_l	hip_rotation_l	knee_angle_l	knee_angle_l_beta	ankle_angle_l	subtalar_angle_l	mtp_angle_l	lumbar_extension	lumbar_bending	lumbar_rotation	arm_flex_r	arm_add_r	arm_rot_r	elbow_flex_r	pro_sup_r	arm_flex_l	arm_add_l	arm_rot_l	elbow_flex_l	pro_sup_l
      0.00000000	    -19.42181156	      0.55557587	      4.27151866	     -1.11344800	      1.10254382	     -0.06611328	     61.18902940	     -0.55066788	      2.70531734	     72.06968212	      1.25785324	     15.90169815	    -25.28018641	     -6.61322189	     65.75760883	      0.89477602	      1.72345772	     80.40620792	      1.40335307	     19.32953592	    -19.18670134	     -6.61322189	    -62.68953421	      2.84163142	      3.37776207	     -6.50017413	    -20.71604602	     28.81101845	     11.66004007	     55.92961982	     -9.28283903	    -19.48336024	     34.99225648	     14.49782219	     26.06674598
      0.00416670	    -20.22963164	      1.48650212	      3.86330017	     -1.10899638	      1.10021947	     -0.06436360	     63.21193580	      0.94166574	      4.33941482	     74.21641615	      1.29532082	     22.33577060	    -24.07194139	     -6.71212449	     63.96458815	      0.64796736	     -0.44581007	     75.74837941	      1.32205862	     21.58416775	    -13.53957415	     -6.71212449	    -61.71749042	      2.17978945	      2.95863947	     -3.10649784	    -16.67906263	     27.21252916	      8.08961149	     55.67019589	     -7.19785852	    -16.72632804	     27.12051336	     14.09543153	     26.81456060
      0.00833330	    -19.90834230	      1.22165813	      3.70624051	     -1.10652881	      1.09925646	     -0.06372329	     62.25906498	      0.58601772	      3.18356503	     74.65278408	      1.30293688	     25.10432481	    -23.16677014	     -6.94605719	     62.79396148	     -0.27885603	     -0.92078903	     75.54626721	      1.31853110	     24.06922598	     -9.69271406	     -6.94605719	    -62.02252866	      1.96343584	      2.81364916	     -1.83046873	    -17.68665577	     31.38477741	      8.31023854	     52.48637260	     -5.30010588	    -16.38327821	     22.30514813	     13.56092095	     29.94142599
      0.01250000	    -19.84700550	      1.23117697	      3.29640634	     -1.10739657	      1.09868013	     -0.06355758	     62.53925422	      0.62218763	      3.04438232	     75.69452240	      1.32111864	     27.02364148	    -21.79797612	     -6.95499749	     62.50794278	     -1.06247583	     -1.79791902	     76.29831196	      1.33165676	     26.75844707	     -7.05350092	     -6.95499749	    -63.36638631	      1.37488847	      2.85772691	     -0.01732413	    -19.16530902	     31.49747912	      9.42075832	     52.15642829	     -3.33963214	    -16.42132677	     22.31208013	     13.64024541	     30.06009447
      0.01666670	    -19.64025163	      1.11496193	      2.96426292	     -1.10574600	      1.10174919	     -0.06355178	     62.02942355	      0.64753984	      2.87824783	     75.52080147	      1.31808664	     27.91178429	    -20.73946771	     -7.01253996	     61.78494256	     -1.48427684	     -2.00572896	     75.92500769	      1.32514137	     27.21081626	     -6.95632416	     -7.01253996	    -63.56662579	      0.85554181	      2.89432145	      1.85375794	    -20.15049064	     31.31439257	      9.51697890	     52.50683377	     -1.33492163	    -16.40552714	     21.95059440	     13.17530133	     31.97950494
      0.02083330	    -19.69499685	      1.38164940	      2.70223656	     -1.10354575	      1.09972319	     -0.06260707	     61.93795118	      0.40512314	      2.95001169	     75.86952407	      1.32417300	     28.65919261	    -20.14256916	     -7.05668248	     62.00660343	     -1.83637088	     -2.39262817	     76.71550720	      1.33893819	     27.99081030	     -6.38621825	     -7.05668248	    -64.45174665	      0.05695884	      2.58805764	      3.77041220	    -20.48148856	     31.55181516	     10.14564447	     52.17304742	      0.44697945	    -16.46567174	     22.21151808	     12.94581257	     33.15693155
      0.02500000	    -18.74756151	      1.31412699	      2.15336643	     -1.10685534	      1.09657272	     -0.06492596	     61.24414532	      0.53729788	      2.91674803	     76.08173449	      1.32787677	     29.47194582	    -19.45415432	     -7.26799180	     61.24218111	     -2.10601466	     -2.34894324	     77.16872703	      1.34684837	     28.45735378	     -6.35749537	     -7.26799180	    -66.28641131	      0.20245060	      3.40225073	      8.50016259	    -19.73474794	     31.98666211	      9.83713986	     38.57921902	      3.05519729	    -16.29054340	     26.27076731	     12.97413335	     29.68944935
      0.02916670	    -17.90156013	      1.42679960	      1.65730400	     -1.10433742	      1.09993710	     -0.06482984	     60.40850382	      0.62424654	      2.99274121	     76.22220625	      1.33032846	     29.33400016	    -19.81646962	     -7.30379650	     60.17906415	     -2.27006330	     -2.47289291	     77.24788118	      1.34822987	     28.58482928	     -6.74902752	     -7.30379650	    -68.30658522	     -0.00835166	      3.76905452	     12.59871029	    -18.83318403	     30.50275408	      9.02460214	     40.92600981	      5.29314853	    -15.74030455	     25.81486839	     13.25688885	     32.60055383
      0.03333330	    -17.65469854	      1.72273610	      1.21147897	     -1.10043053	      1.09500643	     -0.06413325	     60.20427568	      0.70023103	      3.38945021	     76.68282943	      1.33836785	     29.50494762	    -19.94534892	     -7.30295817	     59.92176455	     -2.47971103	     -2.83855849	     77.72461220	      1.35655039	     29.16748584	     -6.88596705	     -7.30295817	    -69.67306431	     -0.39316380	      4.26450286	     15.76255762	    -18.40675211	     27.82391766	      9.29399809	     40.70033071	      7.33073337	    -15.41774108	     25.20745534	     13.46350586	     33.10792577
